<?xml version="1.0" encoding="UTF-8"?>
<!-- Generated by Pixelmator Pro 2.4.1 -->
<svg width="100%" height="100%" viewBox="0 0 500 500" xmlns="http://www.w3.org/2000/svg" xmlns:xlink="http://www.w3.org/1999/xlink">
    <g id="Group">
        <path id="Path" fill="none" stroke="#ffffff" stroke-width="0.166667" stroke-linecap="round" stroke-linejoin="round" d="M 178.080734 301.240112 L 179.110229 301.240112 C 184.331665 301.240112 186.813232 293.997986 188.961975 290.730896 C 193.522095 283.797729 189.581314 276.091553 187.800949 269.05542 C 186.945297 265.672058 186.210464 262.484741 185.516846 259.05719 C 184.088272 251.9944 183.62793 246.495224 184.581009 239.347809 C 185.079178 235.611633 186.326767 231.955658 186.995499 228.229218 C 188.059158 222.298492 192.604553 218.328705 195.831589 213.719147 C 198.675583 209.658051 200.145096 205.954376 204.14183 202.727142 C 209.137817 198.691925 211.069351 195.169037 217.281372 192.507111 C 221.969543 190.496674 226.104004 188.374664 231.016769 186.947205 C 236.345795 185.398254 241.702942 184.330536 247.136688 183.254974 C 255.381149 181.625153 263.668365 184.663361 271.572418 186.433105 C 276.585419 187.555054 279.106354 189.772552 285.018463 189.884613 C 290.705414 189.990753 296.392853 185.661682 298.539154 180.765503 C 302.652802 171.378448 299.51889 165.980225 301.760651 156.953339 C 304.274597 146.826416 315.642639 133.585205 326.332397 131.572266 C 330.570435 130.77536 341.595032 131.188812 345.912415 131.708221 C 351.527466 132.381378 353.89209 134.647339 357.385193 138.593536 C 360.393372 141.988159 361.313782 142.387848 362.982941 146.906891 C 365.357788 153.333984 366.862244 156.252594 366.895416 163.477936 C 366.93045 170.899353 367.710144 172.697693 364.50592 179.791412 C 359.526489 190.831512 347.377502 196.114288 336.319092 199.14917 C 330.234924 200.816864 320.748047 198.071655 315.740967 201.774231 C 309.722107 206.234436 307.585938 217.964325 311.64151 223.99173 C 316.039337 230.532135 315.503632 245.93042 315.703247 253.936279 C 315.969238 264.600891 311.643066 275.893677 306.996735 285.37738 C 306.185608 287.03241 300.051453 292.586426 298.472443 294.144836 C 291.961121 300.57196 286.998993 306.278564 277.838715 308.540894 C 272.966217 309.744629 268.725067 311.944885 263.713043 312.7677 C 249.553192 315.093933 240.243042 315.190613 226.664337 310.844238 C 218.191284 308.132629 206.525696 306.485718 201.72113 315.581421 C 197.239944 324.063538 199.288818 332.571014 198.680176 341.68866 C 197.801453 354.844727 180.846375 363.579956 169.840195 366.472961 C 160.079681 369.038513 147.278275 365.416931 140.527283 358.082947 C 135.172073 352.265686 132.983047 343.423584 132.417831 335.818054 C 131.69809 326.138245 134.316635 324.414246 137.913986 316.309937 C 141.201187 308.903625 149.308884 302.005981 157.452957 300.504456 C 164.553146 299.195679 173.659164 299.219971 180.736923 300.956482 C 181.6017 301.16864 177.190308 301.240112 178.080734 301.240112 Z"/>
        <path id="path1" fill="none" stroke="#ffffff" stroke-width="0.166667" stroke-linecap="round" stroke-linejoin="round" d="M 212.790634 248.497055 L 212.790634 247.449997 C 212.790634 237.97818 217.195114 232.057465 222.927429 225.232574 C 227.140823 220.214691 228.318466 219.38147 234.433594 216.954987 C 241.585861 214.117218 243.019699 212.028839 251.371399 211.990082 C 260.660309 211.945892 266.834747 213.94574 274.092194 219.507904 C 279.770416 223.858612 286.100067 233.740845 287.577667 240.865631 C 289.048889 247.966568 288.506683 255.725037 285.472565 262.188904 C 280.037598 273.770386 275.63443 279.601074 263.421112 284.091736 C 252.523804 288.09845 241.996597 288.572021 231.628494 282.985901 C 225.092712 279.464966 224.714005 279.153992 219.918945 273.491943 C 215.941025 268.795654 214.663269 267.531067 213.304489 261.313782 C 212.41539 257.248291 211.597153 253.12114 211.559311 248.950851 C 211.555344 248.513428 212.790634 248.934464 212.790634 248.497055 Z"/>
        <path id="path2" fill="none" stroke="#ffffff" stroke-width="0.166667" stroke-linecap="round" stroke-linejoin="round" d="M 283.274689 155.436829 L 282.433563 154.9133 C 279.550476 153.111938 271.823334 151.647583 267.999847 150.127991 C 262.585968 147.977051 251.326843 148.076385 245.42659 148.069519 C 237.633118 148.069519 232.40564 149.116425 225.059738 151.371216 C 215.943405 154.167603 206.741684 155.789551 198.798477 161.193024 C 191.764328 165.977966 185.445007 168.958313 179.973953 175.618286 C 175.147705 181.491425 170.259521 185.059967 166.683334 192.142334 C 164.463913 196.537354 161.36348 199.975677 158.629715 203.985413 C 152.759277 212.599152 153.590195 217.869324 151.747269 227.350922 C 150.473434 233.904388 149.112732 239.835846 148.968948 246.589447 C 148.764114 256.280426 151.104446 266.462463 153.021729 275.954559 C 153.14534 276.566498 155.30217 283.270264 155.265259 283.356567 C 154.587189 284.941711 147.132126 286.721222 145.32814 287.352509 C 136.240356 290.53125 131.976532 292.783264 126.28727 300.977661 C 122.804131 305.993835 120.023903 312.080566 117.195702 317.509949 C 114.855217 322.003052 114.394135 333.08432 114.380318 338.268066 C 114.365623 343.6604 117.633331 352.41394 120.09494 357.374756 C 121.356941 359.919281 123.296837 362.713196 125.018105 364.962036 C 126.637047 367.077209 128.090942 369.315338 129.541962 371.549011 C 131.000397 373.80072 138.247421 378.238068 140.815842 379.435944 C 143.814102 380.833862 148.901382 382.844574 152.032425 383.907562 C 159.923706 386.58725 172.657028 386.35611 180.491135 383.754913 C 182.332214 383.143646 187.951157 379.490479 190.094604 378.412506 C 200.967728 372.943604 203.270325 366.383209 209.309982 356.527924 C 211.587357 352.811798 212.967148 349.362 214.027939 345.273895 C 214.313187 344.173218 220.574173 345.949829 221.558533 346.150085 C 227.00708 347.258362 231.781937 348.889404 237.37677 349.262207 C 247.091797 349.90918 257.435669 351.207031 267.140533 349.977234 C 270.571777 349.542206 280.37442 346.491821 283.328613 344.875977 C 288.927002 341.813171 294.873199 339.94873 300.578674 337.24115 C 304.639526 335.313751 308.795197 331.418884 312.920258 329.083618 C 318.521881 325.912415 324.742462 317.029541 329.291901 312.029968 C 334.301971 306.523254 338.087433 298.016815 341.959106 291.429291 C 346.528351 283.654633 349.321503 270.50354 351.3591 261.802979 C 353.619965 252.152832 352.878906 236.922638 349.68277 227.622406 C 348.61618 224.518311 345.957855 219.937347 346.602509 216.52298 C 346.717499 215.912109 352.943726 214.361542 353.976044 213.870026 C 360.135223 210.937286 369.661743 204.422546 373.382324 198.891479 C 379.540863 189.740417 384.321686 182.862122 386.22937 171.900574 C 386.65625 169.447632 386.639038 166.931183 386.621979 164.441406 C 386.574585 158.435516 385.781891 155.62326 384.353851 149.944092 C 383.112946 145.002289 379.222809 136.843323 375.580963 133.380707 C 372.453888 130.408447 369.050049 127.704163 365.916412 124.70166 C 360.041718 119.076294 350.394135 115.969208 342.496246 115.409882 C 333.613129 114.780975 328.429474 114.104736 319.5289 116.539917 C 311.12735 118.839081 299.867523 129.864075 294.649261 137.29306 C 290.988983 142.50412 288.01767 147.833496 284.812531 153.281006 C 284.572998 153.688324 283.466858 155.556396 283.274689 155.436829 Z"/>
        <path id="path3" fill="none" stroke="#ffffff" stroke-width="0.166667" stroke-linecap="round" stroke-linejoin="round" d="M 31.538162 186.310425 C 31.538162 186.310425 31.854971 185.216888 31.871496 185.088348 C 32.153103 182.898102 33.014187 180.528992 33.547344 178.678986 C 34.104748 176.744843 35.002728 175.008453 35.583782 173.114532 C 36.375034 170.539215 37.170837 168.167542 38.214802 165.699707 C 39.697186 162.197418 40.804607 158.351593 42.626102 155.018555 C 44.251175 152.047455 46.007355 148.97049 47.437744 145.917877 C 48.754208 143.112946 49.961246 140.741364 51.823322 138.245209 C 53.036617 136.620972 53.686932 134.483948 54.920147 132.772491 C 56.832531 130.118866 58.77449 127.292084 60.390293 124.450256 C 61.766541 122.027557 63.502579 120.416779 65.160599 118.276428 C 66.548584 116.486847 67.94136 114.480072 69.246735 112.614532 C 69.810051 111.809143 70.45488 111.022675 71.103226 110.236359 C 71.928406 109.235565 72.759293 108.235046 73.435135 107.196228 C 75.210335 104.470367 77.809105 102.308136 79.854897 99.799988 C 80.212372 99.361725 80.660065 99.002625 81.101242 98.648743 C 81.489944 98.336975 81.804123 97.939301 82.113037 97.548309 C 84.226685 94.865082 86.765961 92.187103 89.165665 89.740082 C 92.883163 85.946716 96.213326 82.134491 100.611557 79.051239 C 103.013161 77.369171 105.629555 75.421722 107.819901 73.492523 C 111.195526 70.508575 113.504143 67.431 117.595268 65.393097 C 122.805298 62.798065 126.5392 58.065216 131.563004 55.259094 C 134.800873 53.451996 138.121796 51.388214 141.430618 49.729034 C 144.462616 48.210236 147.623489 47.152496 150.619186 45.520905 C 155.359039 42.938995 160.446503 40.575226 165.395721 38.422455 C 167.962036 37.307922 171.051575 35.586243 173.879333 35.255798 C 174.769318 35.151794 175.645142 34.944397 176.517075 34.737946 C 178.220871 34.324249 179.568756 34.054413 181.226654 33.395966 C 184.126022 32.240631 187.450043 31.719025 190.473206 30.926117 C 198.127914 28.922424 205.540375 27.394989 213.445969 26.570221 C 221.242981 25.757996 228.900024 24.446472 236.747467 23.908417 C 243.103729 23.474762 249.43602 23.675568 255.818848 23.565979 C 256.36673 23.556 256.916382 23.508087 257.463837 23.481628 C 257.822296 23.464294 258.177704 23.402435 258.531281 23.340881 C 261.925781 22.759949 265.83725 23.635345 269.260284 23.661713 C 276.442047 23.719421 284.305786 24.956024 291.199341 26.790802 C 297.948273 28.590607 304.799164 28.749451 311.39978 31.24472 C 317.409332 33.517242 323.508636 34.770599 329.682098 36.486786 C 333.159088 37.45285 336.937683 38.818787 340.225189 40.307556 C 342.113495 41.138 343.862946 42.337463 345.634399 43.378815 C 346.07254 43.636383 346.534027 43.852844 346.994171 44.068695 C 348.937988 44.944244 350.881683 46.039764 352.856812 47.007233 C 357.479218 49.266785 361.721527 51.83197 365.990448 54.681061 C 370.321503 57.568939 374.783569 59.89682 378.840912 63.221008 C 382.601715 66.30545 386.77597 69.082062 390.706055 71.940887 C 393.164581 73.732269 395.530853 74.988251 397.616089 77.290924 C 399.240814 79.089325 401.380157 80.93045 403.269073 82.488312 C 404.040924 83.124786 404.844604 83.723206 405.617554 84.354279 C 406.760895 85.28775 407.740234 86.410706 408.710358 87.523132 C 413.11026 92.561737 418.221649 97.271698 422.628387 102.449677 C 425.296417 105.584076 427.979645 108.531952 430.276581 111.947327 C 433.029541 116.041046 436.370209 119.632996 439.09024 123.746277 C 441.222626 126.97052 442.916351 130.37973 444.977905 133.619568 C 446.060303 135.318817 447.191315 137.018433 448.328461 138.682373 C 449.148407 139.882202 449.91568 141.117432 450.682495 142.351837 C 451.07663 142.976288 451.057373 144.182251 451.524536 144.952271 C 455.038116 150.739838 457.713776 156.59729 459.829712 163.035431 C 461.30542 167.52478 463.279205 171.844849 464.861816 176.315765 C 466.139069 179.923187 467.62973 183.610077 469.052338 187.170227 C 470.387848 190.504578 470.827301 194.680786 471.682129 198.187561 C 472.373627 201.029877 472.225067 204.167572 472.85495 207.075165 C 473.93161 212.045746 474.258392 217.178925 475.333832 222.134338 C 475.910004 224.789276 476.139526 227.511597 476.367798 230.218719 C 476.600128 232.869659 476.776398 235.522797 477.021515 238.180298 C 477.697723 245.514053 477.95462 253.358383 477.398804 260.703064 C 476.970184 266.390442 476.336395 272.019531 475.774261 277.675537 C 475.106903 284.37384 473.489105 290.92688 472.622101 297.599792 C 472.338257 299.784424 471.979126 301.958862 471.620087 304.132446 C 470.372467 311.501892 467.75528 319.067078 465.254395 326.123779 C 462.412476 334.128784 459.019684 342.204163 455.410614 349.903442 C 452.763062 355.558899 449.017578 360.859741 446.044464 366.363831 C 444.939087 368.410583 443.440948 370.881226 441.71521 372.483948 C 441.139313 373.018768 440.762451 373.743378 440.39978 374.440613 C 439.114105 376.905823 437.149689 378.949799 435.676361 381.343964 C 433.854614 384.300232 431.296967 387.025726 429.286163 389.885651 C 425.363312 395.462982 420.65976 400.949738 415.870148 405.804749 C 410.184357 411.566803 404.879059 417.367004 398.418488 422.312073 C 395.011139 424.921631 392.091064 428.03302 388.474976 430.447968 C 383.872528 433.521881 379.553619 436.976074 374.974396 440.087433 C 367.911102 444.885529 360.162018 448.705627 352.868805 453.145325 C 352.173798 453.568359 351.415924 453.845245 350.721558 454.26358 C 350.0802 454.649963 349.40979 454.986694 348.740723 455.322754 C 344.75061 457.320251 341.448517 459.740326 336.94632 460.80368 C 330.906372 462.230316 325.202911 464.855621 319.109863 466.237823 C 312.355682 467.770294 306.278931 471.195343 299.434479 472.558136 C 294.067291 473.626923 289.047699 474.992188 283.551605 475.33548 C 275.685486 475.826996 268.010132 477.275085 260.100006 477.287903 C 258.619049 477.290314 257.091522 477.234802 255.615356 477.364899 C 254.410156 477.47113 253.199158 477.502991 251.989685 477.53479 C 247.110809 477.6651 242.241516 476.509125 237.32872 476.407013 C 231.322556 476.281921 225.47937 475.881165 219.500641 475.4104 C 214.01886 474.97876 207.979111 474.48999 202.619934 473.189178 C 198.585312 472.210114 194.980927 470.551727 190.782654 470.163452 C 187.464142 469.856415 183.66684 467.988922 180.52594 466.784637 C 178.990829 466.195984 177.376465 465.734497 175.92984 464.945801 C 175.102524 464.494751 174.137665 464.335876 173.207886 464.1828 C 170.142502 463.68158 168.212296 463.579346 165.752472 461.626556 C 163.84787 460.115051 160.793854 459.537354 158.599457 458.538269 C 151.652405 455.375549 143.858521 452.788849 137.821701 447.967926 C 128.728455 440.705231 118.07122 435.47467 109.119987 428.041321 C 104.418564 424.137146 100.310944 419.612885 95.71019 415.614746 C 93.118233 413.362427 90.203438 412.399963 88.051277 409.509613 C 86.38829 407.275543 83.655594 405.648438 82.417496 403.090393 C 82.072433 402.377472 81.407578 401.853577 80.785446 401.363373 C 76.598999 398.07019 74.019188 393.840546 70.484497 389.938538 C 67.340996 386.468414 65.077164 382.237122 62.262997 378.511871 C 59.160259 374.403931 56.854893 369.761169 53.863804 365.575317 C 51.439621 362.183289 49.861618 358.168274 47.526474 354.675598 C 44.435413 350.05188 43.001514 344.44812 40.389954 339.544861 C 38.87558 336.701263 38.045986 333.505981 36.651432 330.584656 C 34.961765 327.045105 34.255917 323.063171 32.798908 319.41156 C 32.548801 318.784485 32.581776 318.015015 32.421188 317.356262 C 32.258793 316.690125 32.032925 316.040527 31.807737 315.392883 C 30.170973 310.710083 28.357443 305.854065 27.362839 300.97345 C 26.531242 296.891418 25.908506 292.692566 25.227369 288.585632 C 24.525576 284.353882 24.521013 280.146179 23.650148 275.923523 C 22.937469 272.467651 22.645144 268.718262 22.28319 265.201721 C 21.752787 260.05127 22.162703 254.636368 21.969381 249.45314 C 21.802641 244.983109 22.118784 240.491547 22.150774 236.019989 C 22.159401 234.814301 22.523727 233.629211 22.878023 232.476715 C 23.495199 230.462219 22.72596 227.819275 23.128111 225.681976 C 23.98258 221.140717 24.360298 216.620483 25.391172 212.089203 C 26.202301 208.52298 26.306402 205.015839 27.379723 201.461609 C 28.380606 198.147644 28.569048 194.776001 29.743692 191.465607 C 30.432983 189.522888 30.357458 189.228302 31.249495 187.455841 C 31.31221 187.331207 31.538162 186.427338 31.538162 186.310425 Z"/>
    </g>
</svg>
