<?xml version="1.0" encoding="UTF-8"?>
<!-- Generated by Pixelmator Pro 2.4.1 -->
<svg width="500" height="399" viewBox="0 0 500 399" xmlns="http://www.w3.org/2000/svg">
    <g id="V2-copy">
        <path id="Path" fill="none" stroke="currentColor" stroke-width="0.45378" stroke-linecap="round" d="M 335.078125 6.40625 L 337.453125 5.8125 L 337.703125 6.546875 L 335.21875 7.171875 L 335.21875 9.203125 L 333.46875 9.640625 L 331.5 7.03125 L 328.203125 7.03125 L 328.109375 6.84375 L 331.484375 6.15625 L 330.90625 5 L 332.96875 5 Z"/>
        <path id="path1" fill="none" stroke="#b7c2c6" stroke-width="0.45378" stroke-linecap="round" d="M 337.15625 3.46875 L 340.09375 5.5 L 341.640625 7.046875 L 340.453125 9.34375 L 338.03125 11.46875 L 334.015625 13.234375 L 331 13.5 L 328.03125 12.734375 L 326.234375 11.640625 L 324.96875 10.34375 L 324.015625 7.953125 L 324.125 7.046875 L 324.734375 6.03125 L 328.421875 3.15625 L 330.734375 2.359375 L 332.84375 2.21875 Z"/>
        <path id="path2" fill="none" stroke="#b7c2c6" stroke-width="0.45378" stroke-linecap="round" d="M 219.741089 190.849487 C 219.741089 190.849487 214.129883 203.626389 229.870438 207.74408 C 245.610992 211.861771 246.077408 201.662033 246.077408 201.662033 C 246.077408 201.662033 248.238129 199.074173 244.726822 188.822128"/>
        <path id="path3" fill="none" stroke="#b7c2c6" stroke-width="0.45378" stroke-linecap="round" d="M 209.61174 59.747375 L 221.091675 59.747375 L 231.896317 69.208374 L 221.091675 78.669342 L 209.61174 78.669342"/>
        <path id="path4" fill="none" stroke="#b7c2c6" stroke-width="0.45378" stroke-linecap="round" d="M 209.61174 81.372467 L 221.091675 81.372467 L 232.571594 91.509247 L 228.519852 95.563934"/>
        <path id="path5" fill="none" stroke="#b7c2c6" stroke-width="0.45378" stroke-linecap="round" d="M 233.246887 96.915497 L 235.948044 92.860809 L 258.232635 93.536591 L 271.063141 105.024902 L 267.686676 109.755402"/>
        <path id="path6" fill="none" stroke="#b7c2c6" stroke-width="0.45378" stroke-linecap="round" d="M 271.063141 111.106964 L 275.114868 107.728058 L 299.425323 107.728058 L 304.827637 112.458527"/>
        <path id="path7" fill="none" stroke="#b7c2c6" stroke-width="0.45378" stroke-linecap="round" d="M 306.853516 111.782745 L 302.126465 107.052277 L 310.905243 96.915497 L 336.566254 97.591278 L 340.618011 102.321777"/>
        <path id="path8" fill="none" stroke="#b7c2c6" stroke-width="0.45378" stroke-linecap="round" d="M 343.994446 101.645996 L 339.267426 95.563934 L 348.046204 86.102966 L 360.201416 86.102966"/>
        <path id="path9" fill="none" stroke="#b7c2c6" stroke-width="0.45378" stroke-linecap="round" d="M 360.201416 82.72403 L 347.370911 83.399841 L 334.540405 73.263062 L 341.968597 63.802094 L 352.773224 63.126312"/>
        <path id="path10" fill="none" stroke="#b7c2c6" stroke-width="0.45378" stroke-linecap="round" d="M 352.097931 61.098969 L 341.293304 61.098969 L 330.488647 51.63797 L 333.865112 47.583282"/>
        <path id="path11" fill="none" stroke="#b7c2c6" stroke-width="0.45378" stroke-linecap="round" d="M 329.138062 46.23172 L 326.43692 48.934845 L 304.827637 48.934845 L 293.347717 40.149658 L 297.399445 36.09494"/>
        <path id="path12" fill="none" stroke="#b7c2c6" stroke-width="0.45378" stroke-linecap="round" d="M 288.34375 42.15625 L 298.453125 50.375 L 291.671875 58.390625 L 271.3125 58.390625 L 259.921875 48.890625 L 267.921875 41.5 Z"/>
        <path id="path13" fill="none" stroke="#b7c2c6" stroke-width="0.45378" stroke-linecap="round" d="M 265.984375 59.765625 L 257.28125 67.859375 L 234.875 67.859375 L 225.46875 59.078125 L 234.1875 51.625 L 255.3125 50.953125 Z"/>
        <path id="path14" fill="none" stroke="#b7c2c6" stroke-width="0.45378" stroke-linecap="round" d="M 291.734375 63.109375 L 303.09375 71.953125 L 293.734375 80.671875 L 272.703125 80.03125 L 262.578125 70.53125 L 270.65625 62.453125 Z"/>
        <path id="path15" fill="none" stroke="#b7c2c6" stroke-width="0.45378" stroke-linecap="round" d="M 337.59375 61.890625 L 330.84375 69.875 L 308.46875 69.875 L 297.046875 59.734375 L 304.40625 52.984375 L 325.515625 52.984375 Z"/>
        <path id="path16" fill="none" stroke="#b7c2c6" stroke-width="0.45378" stroke-linecap="round" d="M 342.328125 84.125 L 333.5625 93.53125 L 312.5 93.53125 L 299.71875 82.65625 L 307.140625 74.609375 L 330.90625 74.609375 Z"/>
        <path id="path17" fill="none" stroke="#b7c2c6" stroke-width="0.45378" stroke-linecap="round" d="M 293.765625 84.734375 L 307.1875 95.609375 L 298.46875 104.328125 L 274.734375 103.6875 L 263.90625 92.203125 L 272.671875 84.078125 Z"/>
        <path id="path18" fill="none" stroke="#b7c2c6" stroke-width="0.45378" stroke-linecap="round" d="M 256.5625 71.890625 L 266.09375 81.421875 L 259.265625 90.140625 L 235.5625 88.8125 L 225.484375 79.375 L 235.5 71.234375 Z"/>
        <path id="path19" fill="none" stroke="#b7c2c6" stroke-width="0.45378" stroke-linecap="round" d="M 316.203125 122.40625 L 321.59375 123.765625 L 326.59375 125.640625 L 330.890625 127.984375 L 333.75 130.5 L 334.671875 132.296875 L 334.453125 134.25 L 331.859375 137.171875 L 327.515625 139.828125 L 322.171875 141.796875 L 316.609375 143.046875 L 311.109375 143.625 L 305.734375 143.375 L 300.328125 142.40625 L 296.546875 141 L 293.40625 138.921875 L 291.15625 135.90625 L 290.1875 131.890625 L 290.921875 128.890625 L 292.890625 126.546875 L 296.203125 124.609375 L 300.78125 123.078125 L 306.25 121.90625 L 311.046875 121.703125 Z"/>
        <path id="path20" fill="none" stroke="#b7c2c6" stroke-width="0.45378" stroke-linecap="round" d="M 348.640625 112.390625 L 351.359375 113.34375 L 353.46875 115.25 L 354.46875 117.421875 L 354.828125 121.71875 L 367.453125 126.515625 L 359.59375 128.625 L 350.828125 123.890625 L 349.71875 124.171875 L 342.09375 127.828125 L 347.390625 132.453125 L 340.78125 134.65625 L 323.65625 118.15625 L 340.890625 112.734375 L 345.375 112.140625 Z"/>
        <path id="path21" fill="none" stroke="#b7c2c6" stroke-width="0.45378" stroke-linecap="round" d="M 378.453125 123.015625 L 370.46875 125.859375 L 352 109.3125 L 359.375 106.46875 Z"/>
        <path id="path22" fill="none" stroke="#b7c2c6" stroke-width="0.45378" stroke-linecap="round" d="M 411.515625 113.609375 L 406.046875 115.796875 L 381.390625 111.703125 L 380.96875 112.65625 L 389.828125 119.625 L 380.609375 122.515625 L 361.453125 105.890625 L 368.375 103.015625 L 390.9375 107.8125 L 391.421875 106.90625 L 383.109375 99.234375 L 390.4375 96.984375 Z"/>
        <path id="path23" fill="none" stroke="#b7c2c6" stroke-width="0.45378" stroke-linecap="round" d="M 423.671875 89.453125 L 423.671875 94.25 L 415.453125 94.890625 L 411.609375 95.78125 L 408.234375 97.59375 L 407.53125 98.75 L 407.53125 100.109375 L 408.75 101.890625 L 410.453125 103.171875 L 414.609375 104.625 L 420.03125 104.828125 L 427.546875 103.578125 L 429.140625 102.34375 L 429.03125 99.390625 L 417.078125 102.9375 L 412.96875 99.84375 L 430.296875 94.28125 L 440.84375 101.984375 L 439.4375 104.015625 L 437.71875 105.578125 L 435.515625 106.96875 L 431.828125 108.46875 L 423.625 110.03125 L 414.140625 110.203125 L 409.0625 109.765625 L 395.953125 98.984375 L 397.84375 95.921875 L 400.46875 93.703125 L 404.859375 91.546875 L 411.0625 89.984375 L 417.546875 89.34375 Z"/>
        <path id="path24" fill="none" stroke="#b7c2c6" stroke-width="0.45378" stroke-linecap="round" d="M 447.1875 113.875 L 455.265625 111.1875 L 457.46875 112.9375 L 446.03125 117.765625 L 434.359375 109.78125 L 438.5 107.203125 Z"/>
        <path id="path25" fill="none" stroke="#b7c2c6" stroke-width="0.45378" stroke-linecap="round" d="M 428.125 117.078125 L 428.65625 118.1875 L 428.09375 120.03125 L 427.171875 120.75 L 426.0625 120.921875 L 423.65625 120.375 L 421.265625 119.15625 L 419.765625 117.765625 L 420.21875 116.96875 L 421.75 116.5 L 426.09375 116.34375 Z"/>
        <path id="path26" fill="none" stroke="#b7c2c6" stroke-width="0.45378" stroke-linecap="round" d="M 406.5 119.796875 L 405.65625 121.921875 L 402.21875 121.90625 L 399.71875 122.359375 L 397.765625 124.046875 L 397.921875 125.984375 L 400.34375 128.03125 L 404.390625 129.046875 L 406.09375 128.65625 L 407.890625 127.359375 L 409.234375 124.609375 L 414.078125 124.609375 L 413.9375 125.453125 L 413.21875 126.78125 L 411.109375 128.734375 L 408.59375 130.15625 L 405.171875 131.390625 L 399.84375 131.28125 L 395.75 130.46875 L 392.6875 128.765625 L 391.453125 126.921875 L 391.265625 124.703125 L 392 122.484375 L 393.171875 121.1875 L 395.515625 120 L 400.21875 119.265625 Z"/>
        <path id="path27" fill="none" stroke="#b7c2c6" stroke-width="0.45378" stroke-linecap="round" d="M 308.484375 152.015625 L 308.765625 153.21875 L 305.734375 154.234375 L 303.890625 151.9375 L 305.671875 151.25 L 307.609375 151.078125 Z"/>
        <path id="path28" fill="none" stroke="#b7c2c6" stroke-width="0.45378" stroke-linecap="round" d="M 381.421875 130.03125 L 382.75 130.484375 L 383.59375 131.9375 L 383.453125 133.125 L 382.546875 133.640625 L 381.078125 133.703125 L 378.59375 133.265625 L 376.5625 132.40625 L 376.359375 132.09375 L 376.484375 131.75 L 379.3125 130.015625 Z"/>
        <path id="path29" fill="none" stroke="#b7c2c6" stroke-width="0.45378" stroke-linecap="round" d="M 384.796875 126.90625 L 387.796875 127.734375 L 389.875 129.140625 L 390.71875 130.828125 L 390.6875 133.078125 L 390.03125 134.9375 L 386.015625 136.859375 L 380.546875 138.140625 L 376.28125 137.90625 L 372.40625 136.4375 L 370.125 134.84375 L 368.59375 133.171875 L 368.21875 132.15625 L 368.328125 131.5625 L 369.125 130.6875 L 370.625 129.953125 L 374.609375 127.953125 L 377.515625 127.203125 L 381.765625 126.71875 Z"/>
        <path id="path30" fill="none" stroke="#b7c2c6" stroke-width="0.45378" stroke-linecap="round" d="M 362.34375 134.5 L 357 136.5 L 363.75 143.921875 L 359.703125 145.4375 L 352.9375 138 L 348.109375 140.0625 L 344.75 137.65625 L 360.015625 132.171875 Z"/>
        <path id="path31" fill="none" stroke="#b7c2c6" stroke-width="0.45378" stroke-linecap="round" d="M 335.375 144.828125 L 337.6875 147.125 L 337.796875 148.046875 L 337.0625 148.4375 L 335.078125 148.578125 L 332 148.28125 L 330.71875 147.6875 L 330.09375 147.109375 L 329.984375 146.59375 L 330.65625 145.640625 L 332.125 144.828125 L 333.75 144.296875 Z"/>
        <path id="path32" fill="none" stroke="#b7c2c6" stroke-width="0.45378" stroke-linecap="round" d="M 339.625 141.078125 L 342.03125 142.140625 L 344.484375 144.21875 L 345.3125 145.65625 L 345.40625 147.34375 L 344.65625 148.828125 L 343.125 150.28125 L 337.453125 152.5 L 333.21875 152.984375 L 328.078125 152.078125 L 325.4375 151.0625 L 324.3125 150.109375 L 322.8125 148.125 L 322.546875 146.9375 L 322.859375 145.921875 L 323.609375 145.125 L 328 142.828125 L 333.84375 140.890625 L 337.421875 140.6875 Z"/>
        <path id="path33" fill="none" stroke="#b7c2c6" stroke-width="0.45378" stroke-linecap="round" d="M 313.171875 148.390625 L 313.90625 149.3125 L 314.09375 150.890625 L 313.46875 153.46875 L 323.703125 156.46875 L 318.953125 158.375 L 312.34375 156.375 L 307.765625 156.359375 L 307.421875 157.1875 L 311.671875 161.484375 L 307.03125 163.03125 L 296.984375 152.34375 L 298 151.3125 L 302.6875 149.390625 L 308.40625 147.96875 L 311.734375 147.859375 Z"/>
        <path id="path34" fill="none" stroke="#b7c2c6" stroke-width="0.45378" stroke-linecap="round" d="M 1.622402 113.134338 L 2.972982 101.645996"/>
        <path id="path35" fill="none" stroke="#b7c2c6" stroke-width="0.45378" stroke-linecap="round" d="M 495.25943 140.16568 L 495.934723 132.732056"/>
        <path id="path36" fill="none" stroke="#b7c2c6" stroke-width="0.45378" stroke-linecap="round" d="M 289.4375 156.78125 L 290.0625 157.53125 L 290.453125 158.6875 L 290.015625 162.640625 L 284.171875 164.828125 L 287.578125 169.59375 L 284.109375 171.078125 L 275.9375 159.71875 L 277.65625 158.890625 L 285.1875 156.328125 L 287.890625 156.171875 Z"/>
        <path id="path37" fill="none" stroke="#b7c2c6" stroke-width="0.45378" stroke-linecap="round" d="M 286.453125 160.0625 L 286.5625 161.375 L 283.390625 162.953125 L 281.640625 160.765625 L 285.015625 159.625 L 285.96875 159.5625 Z"/>
        <path id="path38" fill="none" stroke="#b7c2c6" stroke-width="0.45378" stroke-linecap="round" d="M 278.0625 138.640625 L 278.546875 139.296875 L 278.5 140.328125 L 269.28125 143.421875 L 268.09375 141.84375 L 277.046875 138.53125 Z"/>
        <path id="path39" fill="none" stroke="#b7c2c6" stroke-width="0.45378" stroke-linecap="round" d="M 286.875 143.75 L 286.703125 144.390625 L 275.890625 148.859375 L 274.46875 147.78125 L 284.578125 144.015625 L 286.515625 143.59375 Z"/>
        <path id="path40" fill="none" stroke="#b7c2c6" stroke-width="0.45378" stroke-linecap="round" d="M 346.15625 117.96875 L 347.03125 118.53125 L 347.328125 119.21875 L 346.8125 120.296875 L 345.671875 121.296875 L 338.71875 123.828125 L 333.875 119.515625 L 342.140625 117.125 Z"/>
        <path id="path41" fill="none" stroke="#b7c2c6" stroke-width="0.45378" stroke-linecap="round" d="M 152.212082 259.103668 L 154.237961 397.639374"/>
        <path id="path42" fill="none" stroke="#b7c2c6" stroke-width="0.45378" stroke-linecap="round" d="M 103.591202 251.670044 L 106.292358 386.151062"/>
        <path id="path43" fill="none" stroke="#b7c2c6" stroke-width="0.45378" stroke-linecap="round" d="M 350.203125 52.84375 L 364.71875 95.765625 L 287.265625 117.8125 L 209.59375 88.34375 L 209.59375 49.4375 L 279.15625 30.03125 Z"/>
        <path id="path44" fill="none" stroke="#b7c2c6" stroke-width="0.45378" stroke-linecap="round" d="M 208.936447 57.04425 L 219.741089 57.04425 L 229.870438 49.610626 L 226.493988 44.880127"/>
        <path id="path45" fill="none" stroke="#b7c2c6" stroke-width="0.45378" stroke-linecap="round" d="M 229.870438 42.852783 L 233.92218 46.907501 L 255.531464 47.583282 L 264.310242 40.149658 L 259.583191 34.743378"/>
        <path id="path46" fill="none" stroke="#b7c2c6" stroke-width="0.45378" stroke-linecap="round" d="M 263.634949 34.067596 L 267.686676 38.798096 L 290.646545 38.798096 L 294.698273 34.743378"/>
        <path id="path47" fill="none" stroke="#b7c2c6" stroke-width="0.45378" stroke-linecap="round" d="M 429.671875 113.109375 L 432.90625 114.28125 L 434.5625 115.609375 L 435.15625 117.125 L 434.703125 119.25 L 433.015625 121.4375 L 430.578125 122.75 L 426.296875 123.484375 L 421.53125 123.1875 L 415.90625 121.984375 L 413.609375 119.5625 L 412.890625 117.796875 L 413.25 116.09375 L 415.234375 114.46875 L 418.890625 113.265625 L 425.015625 112.46875 Z"/>
        <path id="path48" fill="none" stroke="#b7c2c6" stroke-width="0.45378" stroke-linecap="round" d="M 284.953125 132.53125 L 287.390625 133.703125 L 288.625 135.46875 L 288.609375 138.578125 L 296.40625 141.703125 L 298.734375 143.484375 L 299.59375 144.765625 L 299.71875 146.09375 L 299.375 147 L 296.375 149.703125 L 270.546875 157.65625 L 252.109375 141.09375 L 278.609375 132.046875 L 281.765625 132.015625 Z"/>
        <path id="path49" fill="none" stroke="#b7c2c6" stroke-width="0.45378" stroke-linecap="round" d="M 319.3125 130.046875 L 320.234375 130.75 L 320.640625 131.53125 L 320.234375 134.1875 L 319.59375 135.15625 L 318.109375 136.203125 L 314.234375 136.984375 L 308.171875 136.390625 L 305.375 135.4375 L 303.40625 134.328125 L 302.375 133.046875 L 302.609375 131.890625 L 305.453125 129.4375 L 308.328125 128.671875 L 314.390625 128.53125 Z"/>
        <path id="Outer-plates" fill="none" stroke="#b7c2c6" stroke-width="0.45378" stroke-linecap="round" d="M 22.0625 111.34375 L 9.75 113.921875 L 9.03125 124.15625 L 18.28125 135.546875 L 19.171875 135.234375 L 19.171875 125.8125 L 30.40625 122.6875 L 40.96875 135.765625 L 27.984375 139.640625 L 27.265625 151.890625 L 42.640625 168.671875 L 43.515625 168.296875 L 42.828125 156.234375 L 54 153.75 L 65.28125 168.828125 L 52.9375 172.078125 L 52.9375 181.578125 L 66.84375 202.453125 L 67.796875 202.15625 L 67.796875 190.703125 L 79.6875 187.546875 L 91.6875 204 L 79.375 207.875 L 77.203125 218.03125 L 88.46875 232.8125 L 89.3125 232.625 L 91.328125 222.4375 L 103.328125 218.65625 L 109.9375 227.046875 L 95.578125 232.921875 L 93.375 242.421875 L 102.59375 251.625 L 152.953125 259.125 L 168.40625 252.796875 L 168.40625 244.640625 L 162.140625 237.734375 L 175.015625 232.84375 L 182.65625 239.859375 L 184.828125 248.53125 L 215.046875 235.875 L 214.296875 228.359375 L 206.859375 221.53125 L 232.453125 213.21875 L 241.421875 219.609375 L 243.5625 228.921875 L 272.453125 217.640625 L 271.71875 210.140625 L 264.8125 202.625 L 289.078125 193.671875 L 296.0625 201.9375 L 296.796875 210.03125 L 326.46875 199.40625 L 325.71875 191.875 L 318.234375 184.375 L 342.46875 176.734375 L 349.5 183.125 L 352.390625 190.359375 L 378.484375 179.796875 L 377.71875 173.59375 L 369.703125 167.4375 L 392.390625 159.859375 L 398.78125 167.546875 L 400.984375 173.453125 L 429.0625 163.625 L 429.0625 157.390625 L 420.328125 151.140625 L 441.15625 142.9375 L 450.796875 149.375 L 452.96875 155.890625 L 474.265625 148.765625 L 475.03125 142.59375 L 466.78125 134.984375 L 476.25 131.453125 L 486.546875 137.890625 L 488.03125 144.53125 L 495.09375 140.9375 L 460.234375 274.140625 L 152.125 396.921875 L 105.375 387.578125 L 13.75 231.859375 L 2.4375 113.375 L 6.234375 116.625 L 7.015625 116.265625 L 7.015625 107.578125 L 17.546875 105.109375 Z"/>
        <path id="Shape" fill="none" stroke="#b7c2c6" stroke-width="0.45378" stroke-linecap="round" d="M 322.765625 6.296875 L 321.765625 8.84375 L 321.1875 12.96875 L 321.859375 15.921875 L 323.25 17.8125 L 325.65625 19.3125 L 329.375 20.421875 L 333.359375 20.71875 L 338.328125 20.140625 L 341.28125 19.09375 L 342.71875 18.09375 L 343.6875 16.71875 L 344.5 14.296875 L 344.671875 8.109375 L 343.96875 7.390625 L 349.5 9.453125 L 358.6875 14.421875 L 350.09375 18.390625 L 358.75 24.6875 L 368.15625 20.671875 L 375.875 27.796875 L 368.328125 31.21875 L 383.6875 42.90625 L 393.828125 40.203125 L 408.125 50.15625 L 400.78125 53.5 L 418.1875 67.296875 L 427.671875 62.546875 L 445.328125 74.546875 L 436.59375 79.25 L 455.296875 92.9375 L 466.125 88.875 L 478.328125 96.8125 L 470.171875 100.578125 L 470.375 101.609375 L 475.21875 101.859375 L 480.046875 102.78125 L 483.65625 104.28125 L 486.34375 106.46875 L 489.765625 105.109375 L 497.265625 110.09375 L 495.96875 133.578125 L 485.921875 136.703125 L 477.15625 129.953125 L 464.953125 133.546875 L 464.78125 134.328125 L 472.9375 141.234375 L 450.828125 148.1875 L 441.359375 140.75 L 416.9375 149.375 L 426.375 157.46875 L 399.5625 166.40625 L 392.140625 158.296875 L 367.71875 165.984375 L 367.546875 166.75 L 375.125 173.6875 L 350.234375 182.625 L 342.140625 174.53125 L 315.03125 183.09375 L 323.8125 191.890625 L 297.59375 200.21875 L 289.484375 191.40625 L 261.125 201.34375 L 268.53125 210.09375 L 241.484375 218.46875 L 232.03125 211.046875 L 203.65625 220.265625 L 211.78125 229.0625 L 184.109375 238.71875 L 176.5625 231.328125 L 175.21875 230.65625 L 159.125 236.5 L 166.578125 244.640625 L 153.515625 249.609375 L 102.625 238.890625 L 97.921875 232.4375 L 113.546875 227.671875 L 103.796875 216.4375 L 90.328125 220.46875 L 81.765625 209.453125 L 95.21875 205.40625 L 80.90625 185.34375 L 67.390625 188.71875 L 55.421875 173 L 68.28125 169.609375 L 54.546875 151.5625 L 41.703125 154.9375 L 29.8125 140.53125 L 43.9375 136.484375 L 31.59375 119.78125 L 18.09375 123.828125 L 12.1875 115.5625 L 25.046875 112.171875 L 18.109375 102.921875 L 6.015625 105.609375 L 4.234375 102.5 L 4 100.75 L 4.296875 99.15625 L 7.578125 94.015625 L 16.84375 83.0625 L 19.140625 81.15625 L 22.4375 79.734375 L 30.375 78.0625 L 35.109375 84.15625 L 50.734375 80.421875 L 46 74.34375 L 69.515625 68.609375 L 73.578125 74.71875 L 101.296875 67.59375 L 97.25 61.53125 L 118.890625 56.4375 L 124.3125 61.84375 L 150 55.421875 L 145.265625 49.328125 L 165.46875 44.265625 L 170.203125 49.671875 L 195.984375 43.234375 L 191.25 37.828125 L 211.390625 32.78125 L 216.796875 38.859375 L 240.484375 33.109375 L 235.765625 27.03125 L 255.921875 21.984375 L 259.96875 27.390625 L 283.078125 21.78125 L 283.28125 21.015625 L 278.46875 16.171875 L 295.890625 11.8125 L 302 16.5625 L 316.890625 11.59375 L 317.03125 10.796875 L 311.703125 6.65625 L 312.5625 6.4375 L 318.015625 6.03125 Z"/>
        <path id="path50" fill="none" stroke="#b7c2c6" stroke-width="0.45378" stroke-linecap="round" d="M 239.625 184.515625 L 237.671875 186 L 241 190 L 238.703125 191.375 L 235.34375 188.6875 L 231.265625 190.734375 L 228.5 188.890625 L 230.53125 187.890625 L 230.53125 187.046875 L 226.390625 184.984375 L 229.703125 184.140625 L 232.484375 186.234375 L 236.71875 184.109375 Z"/>
        <path id="path51" fill="none" stroke="#b7c2c6" stroke-width="0.45378" stroke-linecap="round" d="M 241.140625 184.390625 L 242.875 186.484375 L 243.546875 187.953125 L 243.625 190.03125 L 242.34375 192.265625 L 239.640625 194.3125 L 235.546875 196.171875 L 232.640625 196.703125 L 229.96875 196.265625 L 228.09375 195.078125 L 226.421875 192.578125 L 225.140625 188.75 L 225.546875 185.734375 L 227.265625 183.515625 L 230.15625 182.078125 L 233.71875 181.421875 L 237.0625 181.375 Z"/>
        <path id="Path-copy-3" fill="none" stroke="#b7c2c6" stroke-width="0.45378" stroke-linecap="round" d="M 105.617073 61.77475 C 105.617073 61.77475 99.365692 83.040253 111.019386 80.696686 C 126.817818 77.519623 125.875771 77.31778 125.875771 77.31778 C 125.875771 77.31778 128.17128 76.746338 125.588821 63.169312"/>
        <path id="Path-copy-2" fill="none" stroke="#b7c2c6" stroke-width="0.45378" stroke-linecap="round" d="M 120.78125 60.171875 L 118.828125 61.65625 L 122.15625 65.65625 L 119.859375 67.03125 L 116.484375 64.34375 L 112.40625 66.390625 L 109.65625 64.5625 L 111.6875 63.546875 L 111.6875 62.703125 L 107.546875 60.640625 L 110.859375 59.796875 L 113.640625 61.890625 L 117.875 59.765625 Z"/>
        <path id="Path-copy" fill="none" stroke="#b7c2c6" stroke-width="0.45378" stroke-linecap="round" d="M 122.296875 60.046875 L 124.03125 62.140625 L 124.6875 63.609375 L 124.765625 65.6875 L 123.484375 67.921875 L 120.796875 69.96875 L 116.6875 71.828125 L 113.78125 72.359375 L 111.125 71.921875 L 109.25 70.734375 L 107.5625 68.234375 L 106.296875 64.40625 L 106.703125 61.375 L 108.390625 59.1875 L 111.296875 57.734375 L 114.875 57.078125 L 118.203125 57.03125 Z"/>
        <path id="path52" fill="none" stroke="#b7c2c6" stroke-width="0.45378" stroke-linecap="round" d="M 32.010456 78.669342 L 46.191547 75.290405"/>
        <path id="path53" fill="none" stroke="#b7c2c6" stroke-width="0.45378" stroke-linecap="round" d="M 69.826698 69.208374 L 96.838303 62.450531"/>
        <path id="path54" fill="none" stroke="#b7c2c6" stroke-width="0.45378" stroke-linecap="round" d="M 119.122871 56.368469 L 145.459183 50.286407"/>
        <path id="path55" fill="none" stroke="#b7c2c6" stroke-width="0.45378" stroke-linecap="round" d="M 166.393173 44.204346 L 191.378906 38.798096"/>
        <path id="path56" fill="none" stroke="#b7c2c6" stroke-width="0.45378" stroke-linecap="round" d="M 212.312897 32.716034 L 235.948044 27.985535"/>
        <path id="path57" fill="none" stroke="#b7c2c6" stroke-width="0.45378" stroke-linecap="round" d="M 256.206757 21.903473 L 278.491333 17.173004"/>
        <path id="path58" fill="none" stroke="#b7c2c6" stroke-width="0.45378" stroke-linecap="round" d="M 296.724152 11.766724 L 311.580536 7.036224"/>
        <path id="path59" fill="none" stroke="#b7c2c6" stroke-width="0.45378" stroke-linecap="round" d="M 358.85083 15.14563 L 366.954315 20.55191"/>
        <path id="path60" fill="none" stroke="#b7c2c6" stroke-width="0.45378" stroke-linecap="round" d="M 376.408386 28.661316 L 392.615326 40.149658"/>
        <path id="path61" fill="none" stroke="#b7c2c6" stroke-width="0.45378" stroke-linecap="round" d="M 408.147003 50.286407 L 425.704559 62.450531"/>
        <path id="path62" fill="none" stroke="#b7c2c6" stroke-width="0.45378" stroke-linecap="round" d="M 445.287964 75.290405 L 464.196075 88.806091"/>
        <path id="path63" fill="none" stroke="#b7c2c6" stroke-width="0.45378" stroke-linecap="round" d="M 479.05246 97.591278 L 488.506531 105.024902"/>
        <path id="path64" fill="none" stroke="#b7c2c6" stroke-width="0.45378" stroke-linecap="round" d="M 477.515625 107.09375 L 480.859375 106.421875 L 482.0625 107.640625 L 479.46875 109.59375 L 480.765625 111.515625 L 479.125 112.328125 L 476.484375 110.359375 L 473.921875 111.015625 L 472.640625 109.3125 L 475.453125 107.90625 L 473.4375 105.875 L 474.9375 105.140625 Z"/>
        <path id="path65" fill="none" stroke="#b7c2c6" stroke-width="0.45378" stroke-linecap="round" d="M 478.265625 103.265625 L 481.609375 104.015625 L 483.59375 104.890625 L 485.265625 106.3125 L 486.03125 107.921875 L 485.984375 109.34375 L 485.453125 110.375 L 483.59375 111.953125 L 479.21875 113.734375 L 476.515625 113.703125 L 472.9375 112.8125 L 468.671875 110.5625 L 466.921875 108.53125 L 466.875 107.46875 L 467.25 106.59375 L 469.9375 104.28125 L 473.453125 102.984375 Z"/>
        <path id="path66" fill="none" stroke="#b7c2c6" stroke-width="0.45378" stroke-linecap="round" d="M 466.221954 106.376495 C 466.221954 106.376495 459.497589 112.522705 462.84552 123.271088 C 462.84552 123.271088 462.603973 129.466095 469.598419 132.732056"/>
        <path id="path67" fill="none" stroke="#b7c2c6" stroke-width="0.45378" stroke-linecap="round" d="M 481.078339 132.732056 C 481.078339 132.732056 495.25531 124.474731 487.155945 107.728058"/>
        <path id="path68" fill="none" stroke="#b7c2c6" stroke-width="0.45378" stroke-linecap="round" d="M 229.6875 179.984375 L 225.25 181.421875 L 221.953125 184.421875 L 218.859375 190.78125 L 208.90625 194.046875 L 201.015625 195.890625 L 189.34375 197.640625 L 181.875 198.234375 L 171.234375 198.40625 L 161.453125 197.921875 L 152.71875 196.96875 L 142.078125 195.171875 L 133.203125 193.015625 L 124.328125 188.8125 L 118.03125 185.25 L 110.984375 180.515625 L 105.375 175.8125 L 101.09375 171.28125 L 97.171875 165.625 L 94.859375 160.484375 L 93.75 156.0625 L 93.578125 149.25 L 94.390625 145.25 L 95.703125 141.703125 L 96.734375 139.84375 L 118.546875 111.875 L 116.890625 108.15625 L 116.75 105.375 L 117.625 103.5 L 120.40625 101.34375 L 123.203125 100.265625 L 126.859375 99.453125 L 135.84375 98.953125 L 140.078125 101.25 L 142.484375 103.046875 L 143.90625 104.59375 L 144.640625 106.171875 L 144.703125 107.203125 L 144.359375 108.28125 L 142.359375 110.46875 L 139.03125 112.421875 L 132.890625 114.578125 L 116.421875 134.828125 L 113.75 138.578125 L 111.84375 142.171875 L 110.296875 146.5625 L 109.59375 150.875 L 109.734375 155.25 L 110.828125 158.96875 L 114.09375 164.34375 L 118.015625 169 L 122.40625 173 L 127.03125 176.34375 L 133.890625 180.28125 L 139.421875 182.765625 L 147.09375 185.359375 L 156.96875 187.4375 L 164.9375 188.296875 L 174.859375 188.46875 L 183.75 187.796875 L 192.171875 186.46875 L 200.203125 184.515625 L 210.734375 180.8125 L 215.453125 178.5 L 221.09375 174.71875 L 225.296875 170.703125 L 228.953125 165.3125 L 230.859375 160.234375 L 231.5625 155.390625 L 230.984375 148.96875 L 229.125 143.109375 L 225.875 137.984375 L 221.546875 133.59375 L 216.953125 130.203125 L 210.1875 126.484375 L 203.09375 123.546875 L 196.15625 121.328125 L 185.359375 118.796875 L 175.71875 117.484375 L 172.296875 116 L 170.75 114.421875 L 169.84375 112.40625 L 169.484375 102.640625 L 168.5 99.65625 L 166.40625 96.265625 L 163.5 93.515625 L 159.984375 91.296875 L 154.4375 89.078125 L 150.046875 87.9375 L 143.296875 86.875 L 136.75 86.390625 L 122.390625 86.78125 L 91.765625 95.3125 L 88.609375 96.59375 L 86.40625 98.078125 L 84.75 100.3125 L 84.3125 102.5625 L 84.703125 104.59375 L 94.625 116.53125 L 86.703125 126.90625 L 71.796875 107.421875 L 71.171875 105.75 L 70.625 101.65625 L 71.34375 98.265625 L 72.984375 95.390625 L 75.984375 92.359375 L 80.875 89.4375 L 127.953125 77.984375 L 144.765625 78.953125 L 151.359375 79.96875 L 158.9375 81.734375 L 165.390625 83.953125 L 170.78125 86.515625 L 176.078125 90.015625 L 179.734375 93.34375 L 183.0625 97.65625 L 185.15625 101.84375 L 186.421875 106.46875 L 186.671875 110.3125 L 196.875 112.265625 L 196.875 112.28125 L 203.8125 114.046875 L 215.515625 118.109375 L 226.609375 123.6875 L 231.5625 127.015625 L 235.296875 130.0625 L 239.71875 134.671875 L 243.546875 139.84375 L 246.9375 146.0625 L 248.078125 149.875 L 248.546875 153.828125 L 248.3125 157.921875 L 247.5625 161.40625 L 245.75 166.203125 L 243.28125 170.5625 L 239.40625 175.65625 L 235.171875 179.875 Z"/>
        <path id="path69" fill="none" stroke="#b7c2c6" stroke-width="0.45378" stroke-linecap="round" d="M 172.984375 143.671875 L 176.859375 144.4375 L 181.328125 146.03125 L 183.703125 147.8125 L 185.734375 150.171875 L 186.359375 152.078125 L 186.109375 153.65625 L 185.140625 155.125 L 183.09375 156.71875 L 180.1875 158.03125 L 176.640625 158.84375 L 172.640625 159.015625 L 169.328125 158.671875 L 161.265625 156.421875 L 158.953125 154.65625 L 157.1875 152.640625 L 156.46875 150.9375 L 156.53125 149.5625 L 157.15625 148.265625 L 158.875 146.59375 L 163.890625 144.1875 L 168.234375 143.53125 Z"/>
        <path id="path70" fill="none" stroke="#b7c2c6" stroke-width="0.45378" stroke-linecap="round" d="M 180.71875 133.890625 L 189.765625 136.0625 L 196.046875 139.875 L 200.265625 144.375 L 201.640625 146.796875 L 202.515625 149.328125 L 202.84375 153.578125 L 201.796875 156.703125 L 200.125 159.828125 L 198 162.484375 L 195.6875 164.53125 L 191.21875 167.171875 L 185.28125 169.015625 L 174.8125 170.15625 L 164.859375 169.71875 L 159.078125 168.625 L 151.90625 166.09375 L 144.125 161.578125 L 140.625 158.015625 L 139.015625 154.515625 L 138.8125 150.375 L 140.25 145.953125 L 141.828125 143.421875 L 142.53125 142.859375 L 150 138.1875 L 157.90625 135 L 166.390625 133.421875 L 175.109375 133.390625 Z"/>
    </g>
</svg>
